<svg id="svg3010" xmlns="http://www.w3.org/2000/svg" viewBox="0 0 186.91 295.73"><defs><style>.cls-1{fill:#fff;}.cls-2{fill:#1c1c1c;}</style></defs><title>mouse</title><path id="path4097" class="cls-1" d="M75.3,89.13c-2.52,0-5,0-7.55,0-.36,57.61-.14,115.24-.22,172.85.11,30.56-.22,61.12.2,91.67,10.37,0,20.74.08,31.1,0,.27-4.44.34-8.93.35-13.42v-2l2,0c4.41,0,8.81,0,13.2-.05a102.42,102.42,0,0,0-.07-13.57l-.28-2.53,2.53.33c4.54.57,9.13.19,13.67.1.09-4.36.18-8.71.23-13l0-2,2,0c3.43,0,6.87,0,10.33-.2l2.27-.12-.17,2.27c-.72,9.51.89,19,.37,28.55,4.49.15,9,.21,13.48.25l1.95,0,0,2c.09,9.64.07,19.27.23,28.92q6.65.14,13.32.15h2l0,2c.08,4.5.12,9,.1,13.48,10.44.14,20.89.11,31.33.05a87,87,0,0,0,.22-13.42l-.15-2.21,2.2.05c4.43.13,8.87.09,13.25,0,.15-10.39.1-20.78,0-31.18-4.47-.12-8.92-.17-13.38-.22l-1.95,0,0-1.95c-.16-9.65-.08-19.28-.13-28.95-4.47-.16-9-.24-13.47-.12l-2.13.05.08-2.13c.15-3.72.21-7.43.2-11.12v-2h2c20,0,39.9,0,59.87-.25.13-10.35.17-20.7,0-31.05q-6.74,0-13.45-.1l-2,0,0-1.95c-.06-4.48-.1-9-.07-13.47-4.47-.11-8.93-.14-13.4-.15h-2l0-2c0-4.45-.09-8.89-.18-13.35-4.46-.19-8.94-.31-13.45-.27l-2,0v-2q0-6.76-.08-13.5c-4.49,0-9,0-13.47-.1l-2,0v-2c0-4.41,0-8.8-.18-13.2-4.43-.24-8.88-.28-13.35-.3h-2l0-2c-.07-4.49-.12-9-.1-13.47-4.5,0-9-.05-13.47-.13l-1.9,0-.08-1.9c-.16-4.49-.34-9-.35-13.5-4.39-.1-8.77-.12-13.17-.13h-1.95l-.05-1.95c-.11-4.47-.17-9-.13-13.45-4.49,0-9-.08-13.47-.15l-1.9,0-.08-1.9c-.18-4.49-.24-9-.25-13.5-4.47-.1-8.92-.13-13.4-.15h-2l0-2c0-4.46-.05-8.94-.15-13.4-4.49,0-9,0-13.5-.07l-2,0,0-2c0-4.47-.07-9-.08-13.47-4.49-.13-9-.1-13.55-.08h-2l0-2c0-4.51-.11-9-.3-13.5q-3.76,0-7.55,0Z" transform="translate(-67.5 -89.12)"/><path id="path3022" class="cls-2" d="M67.75,89.16c5,0,10.08,0,15.11,0q.33,7.72.34,15.45c5.17,0,10.34,0,15.5.11,0,5.14,0,10.28.08,15.41q-7.82,0-15.63,0c0,72.59.15,145.17.09,217.75,5.15.06,10.29.07,15.44,0-.05-5.13,0-10.25,0-15.38,5.15-.09,10.35-.53,15.45.39.84,5.08.36,10.24.24,15.36-5,.06-10.11.11-15.17.05,0,5.14-.08,10.29-.4,15.42-10.36.08-20.73,0-31.1,0-.42-30.55-.08-61.11-.19-91.67C67.61,204.39,67.39,146.77,67.75,89.16Z" transform="translate(-67.5 -89.12)"/><path id="path3024" class="cls-2" d="M98.78,120.12c5.15,0,10.31.07,15.46.1.11,5.12.15,10.24.18,15.36,5.13,0,10.26,0,15.39.17,0,5.13,0,10.27.27,15.41,5.14.09,10.28.11,15.42.17q-.08,7.68.14,15.37,7.59,0,15.17.16c0,5.13.22,10.26.4,15.39,5.12.1,10.25.12,15.38.14q0,7.7.11,15.4c5.12,0,10.25.07,15.36.35.15,5.06.2,10.12.2,15.19,5.13.13,10.26.16,15.39.13,0,5.15.09,10.3.09,15.45-5.2.26-10.4.22-15.6.08,0-5.14,0-10.29,0-15.44-5.22-.07-10.44-.06-15.65,0,.07-5.21.08-10.41,0-15.61l-15.46,0c0-5.17,0-10.33,0-15.49-5.22-.12-10.43-.11-15.64,0,0-5.21,0-10.42,0-15.63l-15.46,0c-.07-5.19-.05-10.38-.11-15.57-5.18,0-10.36,0-15.53-.11,0-5.14,0-10.28,0-15.42-5.13-.06-10.26-.05-15.39,0-.16-5.19-.14-10.38-.12-15.57Z" transform="translate(-67.5 -89.12)"/><path id="path3028" class="cls-2" d="M207.74,228.91c5.16-.14,10.31.09,15.46.32.1,5.1.14,10.2.2,15.3,5.13,0,10.25,0,15.38.17q0,7.71.09,15.43c5.13.09,10.27.12,15.41.12.19,10.35.16,20.69,0,31-20.63.23-41.25.23-61.87.27,0,5.07.05,10.15-.23,15.22-5.2.26-10.41.2-15.61.16q-.22-15.57,0-31.13c20.73-.13,41.47.06,62.2,0q.1-7.78,0-15.58c-5.18,0-10.37,0-15.55-.1,0-5.15,0-10.3,0-15.45q-7.69-.08-15.4,0c-.19-5.25-.19-10.5-.09-15.75Z" transform="translate(-67.5 -89.12)"/><path id="path3032" class="cls-2" d="M129.88,291.23q7.73,0,15.45,0a92.57,92.57,0,0,1-.3,16c-4.84.38-9.69.33-14.53.28,0,5-.14,10-.24,15-5.15.11-10.37.64-15.47-.33-1.08-5.05-.56-10.25-.47-15.36,5.16,0,10.32,0,15.48,0,0-5.19,0-10.39.08-15.58Z" transform="translate(-67.5 -89.12)"/><path id="path3034" class="cls-2" d="M145,307.21a125.18,125.18,0,0,1,16-.31c.11,10.34,0,20.69.07,31,5.19,0,10.37,0,15.56.1,0,10.3-.09,20.6.07,30.91,10.39.16,20.8-.33,31.18.28a78,78,0,0,1-.16,15.58c-10.44.06-20.87.1-31.31,0q0-7.72-.13-15.44c-5.1,0-10.21-.06-15.31-.16-.17-10.3-.13-20.6-.24-30.89-5.14,0-10.28-.11-15.42-.28.56-10.27-1.48-20.54-.28-30.78Z" transform="translate(-67.5 -89.12)"/><path id="path3036" class="cls-2" d="M192.21,306.78c5.17-.24,10.35-.1,15.53.09,0,10.3-.07,20.6.13,30.91,5.12.05,10.23.11,15.35.25.12,10.39.18,20.78,0,31.17-5.12.13-10.25.26-15.37,0-.58-10.35-.1-20.73-.2-31.09-5.21-.11-10.42-.09-15.62-.13,0-10.4-.12-20.82.15-31.22Z" transform="translate(-67.5 -89.12)"/></svg>